<svg xmlns="http://www.w3.org/2000/svg" viewBox="0 0 640 420" role="img" aria-labelledby="title">
  <title id="title">Oakland CRI tree mark</title>
  <g fill="#ff7417">
    <path d="M66 358c86-38 173-58 254-58s168 20 254 58c-89-18-173-27-254-27S155 340 66 358Z"/>
    <path d="M284 130c8-24 30-40 56-40 24 0 45 14 55 35 23-5 47 7 58 29 22 0 41 16 45 38 29 0 55 20 61 48 29 6 51 30 51 60 0 34-27 61-61 61H429c-35 0-64-27-66-62-1-18 5-34 16-47-24 15-39 43-39 74v6h-40v-8c0-34-18-65-46-82 16 19 24 45 16 72-9 28-35 47-64 47H91c-34 0-61-27-61-61 0-30 22-55 51-60 2-30 26-54 56-57 7-29 34-49 64-48 12-26 41-40 68-31 5-10 10-18 15-24Z"/>
    <path d="M278 258c28 12 47 38 50 68l5 72h-88l46-17c18-7 30-24 30-43 0-27-15-51-39-63l-47-23 43 6Z"/>
    <path d="M368 246l-39 76-39-76 39 23 39-23Z"/>
    <path d="M380 258l43-6-47 23c-24 12-39 36-39 63 0 19 12 36 30 43l46 17h-88l5-72c3-30 22-56 50-68Z"/>
  </g>
</svg>
