<svg xmlns="http://www.w3.org/2000/svg" viewBox="0 0 1200 1200" role="img" aria-labelledby="title">
  <title id="title">Oakland CRI loader logo</title>
  <rect width="1200" height="1200" fill="#ff7417"/>
  <g fill="#ffffff">
    <path d="M302 518c83-38 182-59 298-59s215 21 298 59c-103-17-203-26-298-26s-195 9-298 26Z"/>
    <path d="M541 223c9-25 32-42 60-42 25 0 47 15 57 37 24-5 49 8 61 30 24 0 44 17 48 40 31 0 58 21 64 51 31 6 54 32 54 64 0 36-29 65-65 65H693c-37 0-68-29-70-66-1-19 5-36 17-50-25 16-42 46-42 79v7h-43v-9c0-36-19-69-49-87 17 20 26 48 17 77-9 30-37 50-68 50H333c-36 0-65-29-65-65 0-32 23-58 54-64 2-32 28-57 60-60 8-31 36-52 69-51 12-28 44-43 73-33 5-11 11-19 17-24Z"/>
    <path d="M535 359c30 13 50 41 53 73l5 77h-94l49-18c19-7 32-25 32-46 0-29-16-54-42-67l-50-25 47 6Z"/>
    <path d="M631 346l-42 81-42-81 42 25 42-25Z"/>
    <path d="M644 359l47-6-50 25c-26 13-42 38-42 67 0 21 13 39 32 46l49 18h-94l5-77c3-32 23-60 53-73Z"/>
  </g>
  <text x="600" y="814" fill="#ffffff" font-family="Arial, Helvetica, sans-serif" font-size="138" font-weight="300" letter-spacing="58" text-anchor="middle">OAKLAND</text>
  <line x1="244" y1="885" x2="446" y2="885" stroke="#ffffff" stroke-width="5"/>
  <line x1="754" y1="885" x2="956" y2="885" stroke="#ffffff" stroke-width="5"/>
  <text x="600" y="916" fill="#ffffff" font-family="Arial, Helvetica, sans-serif" font-size="86" font-weight="300" letter-spacing="46" text-anchor="middle">CRI</text>
</svg>
